<?xml version="1.0" encoding="UTF-8" standalone="no"?>
<!-- Created with Inkscape (http://www.inkscape.org/) -->

<svg
   xmlns:dc="http://purl.org/dc/elements/1.1/"
   xmlns:cc="http://creativecommons.org/ns#"
   xmlns:rdf="http://www.w3.org/1999/02/22-rdf-syntax-ns#"
   xmlns:svg="http://www.w3.org/2000/svg"
   xmlns="http://www.w3.org/2000/svg"
   xmlns:xlink="http://www.w3.org/1999/xlink"
   xmlns:sodipodi="http://sodipodi.sourceforge.net/DTD/sodipodi-0.dtd"
   xmlns:inkscape="http://www.inkscape.org/namespaces/inkscape"
   width="400"
   height="400"
   id="svg10824"
   version="1.1"
   inkscape:version="0.48.0 r9654"
   sodipodi:docname="New document 6">
  <defs
     id="defs10826">
    <filter
       id="filter6315"
       x="0"
       y="0"
       width="1"
       height="1"
       inkscape:label="Lightness-Contrast"
       inkscape:menu="Color"
       inkscape:menu-tooltip="Increase or decrease lightness and contrast"
       color-interpolation-filters="sRGB">
      <feFlood
         id="feFlood6317"
         result="result1"
         flood-opacity="0"
         flood-color="rgb(128,128,128)" />
      <feBlend
         id="feBlend6319"
         in2="SourceGraphic"
         mode="normal"
         result="result2" />
      <feComposite
         k4="0"
         k3="0"
         k1="0"
         id="feComposite6321"
         in2="SourceGraphic"
         k2="1"
         operator="arithmetic"
         result="result3" />
      <feComposite
         id="feComposite6323"
         in2="SourceGraphic"
         operator="in" />
    </filter>
    <linearGradient
       y2="247.86218"
       x2="-418.25"
       y1="216.86218"
       x1="-418"
       gradientTransform="translate(-408.70772,-5.6568542)"
       gradientUnits="userSpaceOnUse"
       id="linearGradient9113-371"
       xlink:href="#linearGradient5828-374-807"
       inkscape:collect="always" />
    <linearGradient
       id="linearGradient5828-374-807">
      <stop
         style="stop-color:#444444;stop-opacity:1;"
         offset="0"
         id="stop9306" />
      <stop
         style="stop-color:#181818;stop-opacity:1;"
         offset="1"
         id="stop9308" />
    </linearGradient>
    <linearGradient
       y2="217.04848"
       x2="-417.91422"
       y1="261.07843"
       x1="-433.52817"
       gradientTransform="translate(-408.70772,-5.6568542)"
       gradientUnits="userSpaceOnUse"
       id="linearGradient9115-676"
       xlink:href="#linearGradient4227-885-531"
       inkscape:collect="always" />
    <linearGradient
       inkscape:collect="always"
       id="linearGradient4227-885-531">
      <stop
         style="stop-color:#4b4b4b;stop-opacity:1;"
         offset="0"
         id="stop9312" />
      <stop
         style="stop-color:#181818;stop-opacity:1"
         offset="1"
         id="stop9314" />
    </linearGradient>
    <filter
       color-interpolation-filters="sRGB"
       inkscape:collect="always"
       id="filter4223"
       x="-0.12415066"
       width="1.2483013"
       y="-0.050702102"
       height="1.1014042">
      <feGaussianBlur
         inkscape:collect="always"
         stdDeviation="1.0775053"
         id="feGaussianBlur4225" />
    </filter>
    <linearGradient
       y2="217.97618"
       x2="-521.1377"
       y1="138.78023"
       x1="-521.84479"
       gradientTransform="translate(-408.70772,-5.6568542)"
       gradientUnits="userSpaceOnUse"
       id="linearGradient9117-67"
       xlink:href="#linearGradient5812-421-586"
       inkscape:collect="always" />
    <linearGradient
       id="linearGradient5812-421-586">
      <stop
         style="stop-color:#6d6d6d;stop-opacity:1;"
         offset="0"
         id="stop9318" />
      <stop
         style="stop-color:#181818;stop-opacity:1;"
         offset="1"
         id="stop9320" />
    </linearGradient>
    <filter
       color-interpolation-filters="sRGB"
       inkscape:collect="always"
       id="filter4157">
      <feGaussianBlur
         inkscape:collect="always"
         stdDeviation="1.3081753"
         id="feGaussianBlur4159" />
    </filter>
    <linearGradient
       y2="385.31732"
       x2="224.8492"
       y1="366.85089"
       x1="224.67241"
       gradientUnits="userSpaceOnUse"
       id="linearGradient9119-94"
       xlink:href="#linearGradient4133-863-807"
       inkscape:collect="always" />
    <linearGradient
       id="linearGradient4133-863-807"
       inkscape:collect="always">
      <stop
         id="stop9324"
         offset="0"
         style="stop-color:#181818;stop-opacity:1" />
      <stop
         id="stop9326"
         offset="1"
         style="stop-color:#4b4b4b;stop-opacity:1" />
    </linearGradient>
    <filter
       color-interpolation-filters="sRGB"
       inkscape:collect="always"
       id="filter4129"
       x="-0.090891086"
       width="1.1817822"
       y="-0.17653847"
       height="1.3530769">
      <feGaussianBlur
         inkscape:collect="always"
         stdDeviation="1.3660715"
         id="feGaussianBlur4131" />
    </filter>
    <linearGradient
       y2="384.91275"
       x2="222.94334"
       y1="365.51166"
       x1="222.59024"
       gradientUnits="userSpaceOnUse"
       id="linearGradient9121-792"
       xlink:href="#linearGradient4015-749-920"
       inkscape:collect="always" />
    <linearGradient
       inkscape:collect="always"
       id="linearGradient4015-749-920">
      <stop
         style="stop-color:#181818;stop-opacity:1"
         offset="0"
         id="stop9330" />
      <stop
         style="stop-color:#4b4b4b;stop-opacity:1"
         offset="1"
         id="stop9332" />
    </linearGradient>
    <filter
       color-interpolation-filters="sRGB"
       inkscape:collect="always"
       id="filter4063"
       x="-0.055822723"
       width="1.1116453"
       y="-0.10842491"
       height="1.2168498">
      <feGaussianBlur
         inkscape:collect="always"
         stdDeviation="0.83900226"
         id="feGaussianBlur4065" />
    </filter>
    <linearGradient
       y2="289.10501"
       x2="-348.72437"
       y1="267.10501"
       x1="-295.49323"
       gradientTransform="translate(-408.70772,-5.6568542)"
       gradientUnits="userSpaceOnUse"
       id="linearGradient9123-126"
       xlink:href="#linearGradient4235-431-747"
       inkscape:collect="always" />
    <linearGradient
       inkscape:collect="always"
       id="linearGradient4235-431-747">
      <stop
         style="stop-color:#181818;stop-opacity:1;"
         offset="0"
         id="stop9336" />
      <stop
         style="stop-color:#4b4b4b;stop-opacity:1"
         offset="1"
         id="stop9338" />
    </linearGradient>
    <linearGradient
       y2="240.60359"
       x2="-301.22748"
       y1="194.99521"
       x1="-274.00388"
       gradientUnits="userSpaceOnUse"
       id="linearGradient9125-175"
       xlink:href="#linearGradient5836-624-121"
       inkscape:collect="always" />
    <linearGradient
       id="linearGradient5836-624-121">
      <stop
         style="stop-color:#323232;stop-opacity:1;"
         offset="0"
         id="stop9342" />
      <stop
         style="stop-color:#726c6c;stop-opacity:1;"
         offset="1"
         id="stop9344" />
    </linearGradient>
    <filter
       color-interpolation-filters="sRGB"
       inkscape:collect="always"
       id="filter5860">
      <feGaussianBlur
         inkscape:collect="always"
         stdDeviation="0.89531175"
         id="feGaussianBlur5862" />
    </filter>
    <linearGradient
       y2="300.36218"
       x2="-336.5"
       y1="306.36218"
       x1="-358"
       gradientTransform="translate(-408.70772,-5.6568542)"
       gradientUnits="userSpaceOnUse"
       id="linearGradient9127-999"
       xlink:href="#linearGradient6094-227-691"
       inkscape:collect="always" />
    <linearGradient
       inkscape:collect="always"
       id="linearGradient6094-227-691">
      <stop
         style="stop-color:#181818;stop-opacity:1;"
         offset="0"
         id="stop9348" />
      <stop
         style="stop-color:#181818;stop-opacity:0;"
         offset="1"
         id="stop9350" />
    </linearGradient>
    <linearGradient
       y2="362"
       x2="-269.83563"
       y1="362"
       x1="-356.9021"
       gradientTransform="translate(-408.70772,-5.6568542)"
       gradientUnits="userSpaceOnUse"
       id="linearGradient9129-815"
       xlink:href="#linearGradient6062-394-844"
       inkscape:collect="always" />
    <linearGradient
       inkscape:collect="always"
       id="linearGradient6062-394-844">
      <stop
         style="stop-color:#212121;stop-opacity:1;"
         offset="0"
         id="stop9354" />
      <stop
         style="stop-color:#212121;stop-opacity:0;"
         offset="1"
         id="stop9356" />
    </linearGradient>
    <linearGradient
       y2="132.50465"
       x2="-435.22421"
       y1="148.59229"
       x1="-435.22421"
       gradientTransform="translate(-408.70772,-5.6568542)"
       gradientUnits="userSpaceOnUse"
       id="linearGradient9131-647"
       xlink:href="#linearGradient4169-243-914"
       inkscape:collect="always" />
    <linearGradient
       id="linearGradient4169-243-914">
      <stop
         style="stop-color:#fdfdfd;stop-opacity:1;"
         offset="0"
         id="stop9360" />
      <stop
         id="stop9362"
         offset="0.32750347"
         style="stop-color:#474747;stop-opacity:1;" />
      <stop
         id="stop9364"
         offset="0.5"
         style="stop-color:#fdfdfd;stop-opacity:1;" />
      <stop
         style="stop-color:#c2bcbc;stop-opacity:1;"
         offset="0.78616112"
         id="stop9366" />
      <stop
         style="stop-color:#fdfdfd;stop-opacity:1;"
         offset="1"
         id="stop9368" />
    </linearGradient>
    <filter
       color-interpolation-filters="sRGB"
       inkscape:collect="always"
       id="filter5933"
       x="-0.029222043"
       width="1.0584441"
       y="-0.13430165"
       height="1.2686033">
      <feGaussianBlur
         inkscape:collect="always"
         stdDeviation="0.2293626"
         id="feGaussianBlur5935" />
    </filter>
    <filter
       color-interpolation-filters="sRGB"
       inkscape:collect="always"
       id="filter5917">
      <feGaussianBlur
         inkscape:collect="always"
         stdDeviation="0.09380995"
         id="feGaussianBlur5919" />
    </filter>
    <linearGradient
       y2="188.9848"
       x2="-550.12909"
       y1="189.41895"
       x1="-443.27145"
       gradientUnits="userSpaceOnUse"
       id="linearGradient9133-975"
       xlink:href="#linearGradient4161-556-303"
       inkscape:collect="always" />
    <linearGradient
       inkscape:collect="always"
       id="linearGradient4161-556-303">
      <stop
         style="stop-color:#181818;stop-opacity:1"
         offset="0"
         id="stop9372" />
      <stop
         style="stop-color:#323232;stop-opacity:0;"
         offset="1"
         id="stop9374" />
    </linearGradient>
    <filter
       color-interpolation-filters="sRGB"
       inkscape:collect="always"
       id="filter5969">
      <feGaussianBlur
         inkscape:collect="always"
         stdDeviation="0.51909625"
         id="feGaussianBlur5971" />
    </filter>
    <pattern
       inkscape:collect="always"
       xlink:href="#Wavy-862-54"
       id="pattern6250-278-844"
       patternTransform="matrix(0.98425367,0,0,0.9847839,-413.79943,-2.02302)" />
    <pattern
       inkscape:stockid="Wavy"
       id="Wavy-862-54"
       height="5.1805778"
       width="30.066020"
       patternUnits="userSpaceOnUse"
       inkscape:collect="always"
       patternTransform="matrix(0.98425367,0,0,0.9847839,-5.0917146,3.6338342)">
      <path
         id="path9378"
         d="M 7.597,0.061 C 5.079,-0.187 2.656,0.302 -0.01,1.788 L -0.01,3.061 C 2.773,1.431 5.173,1.052 7.472,1.280 C 9.770,1.508 11.969,2.361 14.253,3.218 C 18.820,4.931 23.804,6.676 30.066,3.061 L 30.062,1.788 C 23.622,5.497 19.246,3.770 14.691,2.061 C 12.413,1.207 10.115,0.311 7.597,0.061 z "
         style="fill:#181818;stroke:none;" />
    </pattern>
    <filter
       color-interpolation-filters="sRGB"
       inkscape:collect="always"
       id="filter5796"
       x="-0.11101973"
       width="1.2220395"
       y="-0.067354798"
       height="1.1347096">
      <feGaussianBlur
         inkscape:collect="always"
         stdDeviation="0.38191722"
         id="feGaussianBlur5798" />
    </filter>
    <filter
       color-interpolation-filters="sRGB"
       inkscape:collect="always"
       id="filter5909"
       x="-0.030148754"
       width="1.0602975"
       y="-0.11767751"
       height="1.235355">
      <feGaussianBlur
         inkscape:collect="always"
         stdDeviation="0.2631578"
         id="feGaussianBlur5911" />
    </filter>
    <filter
       color-interpolation-filters="sRGB"
       inkscape:collect="always"
       id="filter6028"
       x="-0.025693879"
       width="1.0513878"
       y="-0.11610691"
       height="1.2322139">
      <feGaussianBlur
         inkscape:collect="always"
         stdDeviation="0.26851237"
         id="feGaussianBlur6030" />
    </filter>
    <filter
       color-interpolation-filters="sRGB"
       inkscape:collect="always"
       id="filter6032"
       x="-0.026474299"
       width="1.0529486"
       y="-0.12231322"
       height="1.2446264">
      <feGaussianBlur
         inkscape:collect="always"
         stdDeviation="0.26851237"
         id="feGaussianBlur6034" />
    </filter>
    <linearGradient
       y2="291.11218"
       x2="-265.54694"
       y1="293.94061"
       x1="-281.51776"
       gradientTransform="translate(-408.70772,-5.6568542)"
       gradientUnits="userSpaceOnUse"
       id="linearGradient9135-476"
       xlink:href="#linearGradient6102-665-222"
       inkscape:collect="always" />
    <linearGradient
       inkscape:collect="always"
       id="linearGradient6102-665-222">
      <stop
         style="stop-color:#181818;stop-opacity:1;"
         offset="0"
         id="stop9382" />
      <stop
         style="stop-color:#4b4b4b;stop-opacity:1"
         offset="1"
         id="stop9384" />
    </linearGradient>
    <linearGradient
       y2="291.11218"
       x2="-265.54694"
       y1="293.94061"
       x1="-281.51776"
       gradientTransform="translate(-408.70772,-5.6568542)"
       gradientUnits="userSpaceOnUse"
       id="linearGradient10822"
       xlink:href="#linearGradient6102-665-222"
       inkscape:collect="always" />
  </defs>
  <sodipodi:namedview
     id="base"
     pagecolor="#ffffff"
     bordercolor="#666666"
     borderopacity="1.0"
     inkscape:pageopacity="0.0"
     inkscape:pageshadow="2"
     inkscape:zoom="1"
     inkscape:cx="375"
     inkscape:cy="200"
     inkscape:document-units="px"
     inkscape:current-layer="layer1"
     showgrid="false"
     inkscape:window-width="1280"
     inkscape:window-height="748"
     inkscape:window-x="-8"
     inkscape:window-y="-8"
     inkscape:window-maximized="1" />
  <metadata
     id="metadata10829">
    <rdf:RDF>
      <cc:Work
         rdf:about="">
        <dc:format>image/svg+xml</dc:format>
        <dc:type
           rdf:resource="http://purl.org/dc/dcmitype/StillImage" />
        <dc:title></dc:title>
      </cc:Work>
    </rdf:RDF>
  </metadata>
  <g
     inkscape:label="Layer 1"
     inkscape:groupmode="layer"
     id="layer1"
     transform="translate(0,-652.36215)">
    <g
       transform="matrix(1.1896108,0,0,1.1896108,1167.8082,568.25295)"
       style="filter:url(#filter6315)"
       id="g8993">
      <path
         style="fill:url(#linearGradient9113-371);fill-opacity:1;stroke:none"
         d="m -836.32862,198.89428 c -4.9194,0 -9.36472,3.04628 -12.6875,8 8.10561,3.16548 14.83929,17.25692 14.83929,31.09375 0,8.46786 -6.19852,13.59421 -9.80358,18.96875 1.42794,0.55811 6.11526,0.84375 7.65179,0.84375 10.25672,0 18.59375,-13.16482 18.59375,-29.4375 0,-16.27268 -8.33703,-29.46875 -18.59375,-29.46875 z"
         id="path8995"
         inkscape:connector-curvature="0"
         sodipodi:nodetypes="scscsss" />
      <path
         inkscape:connector-curvature="0"
         id="path8997"
         d="m -836.89522,202.9369 c -2.32009,0.17385 -8.2643,2.36016 -4.46875,4.5625 9.30222,9.9672 13.40452,25.14005 9.65625,38.3125 -0.9116,2.88398 -3.69616,6.13446 -4.625,8.09375 11.60297,-2.19094 14.56415,-16.21975 14.5625,-26.375 -0.0187,-9.27324 -3.36497,-20.72781 -12.8125,-24.4375 -0.75668,-0.14782 -1.5424,-0.24826 -2.3125,-0.15625 z"
         style="fill:url(#linearGradient9115-676);fill-opacity:1;stroke:none;filter:url(#filter4223)" />
      <path
         sodipodi:nodetypes="ccccccccccccccccccccccccscccccccccccccccccccccssscss"
         inkscape:connector-curvature="0"
         style="fill:url(#linearGradient9117-67);fill-opacity:1;stroke:none"
         d="m -697.10987,115.83178 -16.03125,5 -6.46875,0.6875 -3.59375,4.15625 -88.4375,0.15625 -1.625,3.0625 -58.15625,0.34375 -0.4375,-3.53125 -61.21875,0 -4.50033,-5.92233 -20.5111,-0.7471 -0.0589,-0.002 -0.0146,0.0762 -1.44637,7.00196 -3.8125,3.3125 -0.8125,73.5 4.96875,6.3125 5.59375,0.0312 1.90625,-6.1875 2.03125,3.78125 4.1875,2.125 40.59375,-0.28125 c 16.49825,9.9454 10.4018,33.76571 8.0625,46.875 33.66741,16.53063 59.29094,14.07517 92.21875,4.46875 8.7862,0.84857 17.82877,3.78159 20.25,11.4375 6.27984,19.85675 14.96309,55.71493 20.8125,75.9375 l -2.0625,20.53125 c -0.0993,2.26036 -0.19457,2.12946 1.21875,3.46875 l 15.84375,0 76.4375,-15.125 c 3.68042,-1.96975 3.92628,-1.77393 4.25,-5.96875 l 0.3125,-18.34375 -1.375,-0.8125 c -7.53324,-77.95162 -26.09013,-75.78031 -28.46875,-105.28125 l 0.0937,0 c 1.37603,-20.97576 14.11632,-20.62008 29.84375,-30.21875 1.05317,-0.47287 2.02303,-0.94176 3.15625,-1.4375 l 0.0937,-1.65625 0.28125,-0.25 c -0.0833,0.004 -0.16673,-0.004 -0.25,0 l 0.28125,-4.46875 -14.15625,-59 -3.9375,-3.34375 -4.03125,-9.5625 -11.03125,-0.125 z m -141.625,90.96875 c 9.0247,0.0112 18.49331,1.0796 28.125,3.5 22.01531,5.53234 17.69084,38.45223 3.59375,44.3125 -14.34896,5.96498 -60.07776,8.54027 -69.3125,-0.71875 -14.85609,-17.20276 -4.16755,-39.50396 5.71875,-42.5 9.41329,-2.85269 20.27182,-4.60814 31.875,-4.59375 z"
         id="path8999" />
      <path
         sodipodi:nodetypes="ccccccccccccccccccccccccccccc"
         inkscape:connector-curvature="0"
         id="path9001"
         d="m -714.89522,129.2494 c -5.18083,4.76939 -12.43214,5.50554 -19.09348,4.47804 -24.56203,0.32971 -49.29214,-0.60453 -73.75027,0.61571 -7.02474,5.62629 -16.50826,1.07177 -24.53122,2.66679 -16.26062,0.0515 -32.52049,0.24738 -48.78128,0.23946 5.05181,-5.7893 -2.87723,-3.26505 -6.34342,-3.5679 -17.26859,0.48369 -34.5432,-0.34948 -51.81283,0.0679 1.73025,-6.20679 -5.97664,-8.21595 -10.4375,-6.1875 -2.63033,-3.31007 -3.66603,2.39855 -4.9375,3.9375 -2.82962,7.95391 0.13756,16.62906 -1.04125,24.87495 0.14481,12.47721 -1.11837,26.61497 -0.20875,38.12505 4.85841,-3.32866 10.63829,1.03023 11.84375,6 1.64954,1.73805 5.50033,-0.12748 8.09367,0.58125 12.07636,0.30216 24.96634,-2.1884 36.50008,1.66875 5.56675,3.13114 9.39894,10.36219 11.53125,14.9375 5.26244,-10.69735 16.94396,-16.47791 28.53125,-17.0625 19.86989,-3.10242 41.56506,-3.21274 59.8125,6.09375 14.7323,10.31047 15.85461,33.14335 5.65625,46.96875 11.1238,3.21785 18.84387,13.7761 19.92829,25.10945 6.56683,22.98886 12.67551,46.15874 18.32171,69.3593 -0.36426,5.08765 -1.16017,10.31544 -1.53125,15.28125 25.99539,-1.40974 50.83458,-9.94645 76.5625,-13.4375 3.45526,-0.0668 5.97587,-2.20309 4.875,-5.875 -0.48415,-13.52375 -3.29231,-26.85113 -4.7276,-40.31242 -3.71737,-21.82364 -12.29677,-42.42863 -22.2724,-62.18758 -5.41166,-14.98836 -2.43946,-35.08701 12.59375,-43.21875 5.43937,-3.85545 13.51283,-5.02863 17.53125,-9.96875 -2.87467,-18.15545 -8.56309,-35.86583 -12.46875,-53.78125 -8.67406,-15.26813 -10.80821,-8.39253 -29.84375,-5.40625 z"
         style="fill:#323232;fill-opacity:1;stroke:none;filter:url(#filter4157)" />
      <path
         style="fill:#4b4b4b;fill-opacity:1;stroke:none"
         d="m -959.32862,124.64428 -0.28125,1.27756 -3.8125,2.88132 -0.125,9.97586 288.3125,0 -2.875,-10.46514 -3.9375,-2.9085 -0.375,-0.7611 -39.875,0 -0.90625,0.89701 -88.4375,0.13591 -1.625,2.66386 -58.15625,0.299 -0.4375,-3.07159 -61.21875,0 -0.75,-0.92419 -25.5,0 z"
         id="path9003"
         inkscape:connector-curvature="0" />
      <path
         id="path9005"
         d="m -812.67237,128.11086 -0.0954,0.20198 -58.34212,0.37029 0,4.24157 c 0,2.61455 1.9818,4.71285 4.45117,4.71285 l 49.53516,0 c 2.46937,0 4.45117,-2.0983 4.45117,-4.71285 l 0,-4.81384 z"
         style="fill:#4b4b4b;fill-opacity:1;stroke:none"
         inkscape:connector-curvature="0" />
      <path
         sodipodi:type="arc"
         style="fill:url(#linearGradient9119-94);fill-opacity:1;stroke:none;filter:url(#filter4129)"
         id="path9007"
         sodipodi:cx="220.17857"
         sodipodi:cy="374.86218"
         sodipodi:rx="18.035715"
         sodipodi:ry="9.2857141"
         d="m 238.21429,374.86218 c 0,5.12836 -8.07487,9.28572 -18.03572,9.28572 -9.96085,0 -18.03571,-4.15736 -18.03571,-9.28572 0,-5.12836 8.07486,-9.28571 18.03571,-9.28571 9.96085,0 18.03572,4.15735 18.03572,9.28571 z"
         transform="translate(-1100.6009,-188.11912)" />
      <path
         transform="matrix(1.5375327,0,0,1.3454017,-1077.4666,-293.66857)"
         d="m 238.21429,374.86218 c 0,5.12836 -8.07487,9.28572 -18.03572,9.28572 -9.96085,0 -18.03571,-4.15736 -18.03571,-9.28572 0,-5.12836 8.07486,-9.28571 18.03571,-9.28571 9.96085,0 18.03572,4.15735 18.03572,9.28571 z"
         sodipodi:ry="9.2857141"
         sodipodi:rx="18.035715"
         sodipodi:cy="374.86218"
         sodipodi:cx="220.17857"
         id="path9009"
         style="fill:url(#linearGradient9121-792);fill-opacity:1;stroke:none;filter:url(#filter4063)"
         sodipodi:type="arc" />
      <rect
         style="fill:none;stroke:#181818;stroke-width:0.81;stroke-linecap:round;stroke-linejoin:round;stroke-miterlimit:4;stroke-opacity:1;stroke-dasharray:none;stroke-dashoffset:0"
         id="rect9011"
         width="27.667969"
         height="11.785714"
         x="-829.52948"
         y="171.20732"
         ry="2.8571429" />
      <path
         style="fill:none;stroke:#181818;stroke-width:1.16499996;stroke-linecap:round;stroke-linejoin:round;stroke-miterlimit:4;stroke-opacity:1;stroke-dasharray:none;stroke-dashoffset:0"
         d="m -751.40965,171.11803 32.20521,0 c 2.32198,0 5.12403,1.80838 4.19131,3.52254 l -3.39286,6.23543 c -0.93272,1.71416 -2.76218,4.77254 -5.08416,4.77254 l -27.9195,0 c -2.32198,0 -4.19131,-1.57105 -4.19131,-3.52254 l 0,-7.48543 c 0,-1.95149 1.86933,-3.52254 4.19131,-3.52254 z"
         id="path9013"
         inkscape:connector-curvature="0"
         sodipodi:nodetypes="sssssssss" />
      <path
         style="fill:none;stroke:#181818;stroke-width:0.87099999;stroke-linecap:round;stroke-linejoin:round;stroke-miterlimit:4;stroke-opacity:1;stroke-dasharray:none;stroke-dashoffset:0"
         d="m -793.99382,171.78772 27.75874,0 c 1.58286,0 2.85715,1.27429 2.85715,2.85715 -0.57694,3.16958 -0.79485,7.71381 -2.85715,8.92857 -9.7921,2.15674 -18.91525,1.63768 -27.75874,0 -1.55843,-1.4831 -2.79353,-5.05795 -2.85714,-8.92857 0,-1.58286 1.27429,-2.85715 2.85714,-2.85715 z"
         id="path9015"
         inkscape:connector-curvature="0"
         sodipodi:nodetypes="ssccccs" />
      <rect
         style="opacity:0.69911505;fill:none;stroke:#252525;stroke-width:0.58831102;stroke-linecap:round;stroke-linejoin:round;stroke-miterlimit:4;stroke-opacity:1;stroke-dasharray:none;stroke-dashoffset:0"
         id="rect9017"
         width="11.618119"
         height="17.080185"
         x="-815.18024"
         y="82.886681"
         ry="1.8285043"
         rx="1.8034631"
         transform="matrix(0.98180735,-0.18987975,0.18987975,0.98180735,0,0)" />
      <path
         sodipodi:type="arc"
         style="opacity:0.68584074;fill:none;stroke:#1c1c1c;stroke-width:0.76200002;stroke-linecap:round;stroke-linejoin:round;stroke-miterlimit:4;stroke-opacity:1;stroke-dasharray:none;stroke-dashoffset:0"
         id="path9019"
         sodipodi:cx="391.68665"
         sodipodi:cy="500.94516"
         sodipodi:rx="13.889598"
         sodipodi:ry="13.889598"
         d="m 405.57624,500.94516 c 0,7.67101 -6.21858,13.8896 -13.88959,13.8896 -7.67102,0 -13.8896,-6.21859 -13.8896,-13.8896 0,-7.67101 6.21858,-13.8896 13.8896,-13.8896 7.67101,0 13.88959,6.21859 13.88959,13.8896 z"
         transform="translate(-1101.9249,-184.50436)" />
      <path
         transform="matrix(0.54874193,0,0,0.54874193,-925.17315,41.551184)"
         d="m 405.57624,500.94516 c 0,7.67101 -6.21858,13.8896 -13.88959,13.8896 -7.67102,0 -13.8896,-6.21859 -13.8896,-13.8896 0,-7.67101 6.21858,-13.8896 13.8896,-13.8896 7.67101,0 13.88959,6.21859 13.88959,13.8896 z"
         sodipodi:ry="13.889598"
         sodipodi:rx="13.889598"
         sodipodi:cy="500.94516"
         sodipodi:cx="391.68665"
         id="path9021"
         style="opacity:0.68584074;fill:none;stroke:#1c1c1c;stroke-width:0.76200002;stroke-linecap:round;stroke-linejoin:round;stroke-miterlimit:4;stroke-opacity:1;stroke-dasharray:none;stroke-dashoffset:0"
         sodipodi:type="arc" />
      <path
         style="fill:#323232;stroke:url(#linearGradient9123-126);stroke-width:0.76200002;stroke-linecap:round;stroke-linejoin:round;stroke-miterlimit:4;stroke-opacity:1;stroke-dashoffset:0"
         d="m -762.29839,233.60019 35.83932,-0.44194 c 1.34469,0.52781 2.53016,1.45596 3.30323,3.5709 4.05757,18.31249 21.37479,45.69581 22.82457,63.04254 0.0858,1.02661 -0.1216,2.27278 -0.84008,1.5785 -3.89015,-3.7591 -33.0235,-6.01144 -25.64461,26.50092 0.68411,2.46943 -0.16728,3.40334 -1.46899,3.88694 l -7.65446,-0.13786 c -0.99897,-0.018 -1.87127,-0.83448 -2.14186,-1.8285 l -25.68219,-94.34299 c -0.27056,-0.99403 0.46603,-1.81619 1.46507,-1.82851 z"
         id="path9023"
         inkscape:connector-curvature="0"
         sodipodi:nodetypes="sccssccssss" />
      <path
         inkscape:connector-curvature="0"
         id="path9025"
         d="m -708.80147,252.4369 c -0.3619,-0.006 -0.91759,0.60897 -0.65625,1.21875 9.56354,22.31428 19.94175,43.27651 22.4375,77.15625 0.0487,0.66164 0.29429,1.1875 0.65625,1.1875 l 16.46875,0 c 0.2568,0 0.49331,-0.29487 0.59375,-0.6875 l -0.1875,-0.125 c -0.20739,-2.14596 -0.40147,-4.22315 -0.625,-6.25 -2.10864,-14.18843 -4.16131,-28.41222 -7.5,-42.0625 -3.84545,-14.14933 -8.05689,-22.80415 -11.6875,-30.09375 l -19.5,-0.34375 z"
         style="opacity:0.69026549;fill:none;stroke:#181818;stroke-width:0.69082904;stroke-linecap:round;stroke-linejoin:round;stroke-miterlimit:4;stroke-opacity:1;stroke-dashoffset:0" />
      <path
         transform="matrix(1,0,0,0.97022301,-409.76838,-0.02096625)"
         inkscape:connector-curvature="0"
         style="fill:url(#linearGradient9125-175);fill-opacity:1;stroke:none;filter:url(#filter5860)"
         d="m -266.46465,189.26988 c -21.53911,0 -39,17.46089 -39,39 0,12.06655 5.48758,22.82068 14.09375,29.96875 l 11.28125,0.1875 c -4.27176,-8.57153 -7.72334,-15.30456 -8.65625,-26.875 l 0.0937,0 c 1.37603,-20.97576 14.11632,-20.62008 29.84375,-30.21875 1.05317,-0.47287 2.02303,-0.94176 3.15625,-1.4375 l 0.0937,-1.65625 0.28125,-0.25 c -0.0833,0.004 -0.16673,-0.004 -0.25,0 l 0.28125,-4.46875 -0.6875,-2.8125 c -3.35072,-0.93774 -6.88117,-1.4375 -10.53125,-1.4375 z"
         id="path9027" />
      <path
         style="opacity:0.68584074;fill:none;stroke:#181818;stroke-width:0.76200002;stroke-linecap:round;stroke-linejoin:round;stroke-miterlimit:4;stroke-opacity:1;stroke-dashoffset:0"
         d="m -784.29737,269.47521 27.25,0.5 17,62 -27.625,-0.125 z"
         id="path9029"
         inkscape:connector-curvature="0"
         sodipodi:nodetypes="ccccc" />
      <path
         id="path9031"
         d="m -783.86397,271.15565 0.3125,1.125 27.125,0 -0.3125,-1.125 -27.125,0 z m 1.34375,4.96875 0.28125,1.125 27.1875,0 -0.3125,-1.125 -27.15625,0 z m 1.3125,4.96875 0.3125,1.125 27.1875,0 -0.28125,-1.125 -27.21875,0 z m 1.3125,4.9375 0.3125,1.125 27.25,0 -0.3125,-1.125 -27.25,0 z m 1.34375,4.96875 0.28125,1.125 27.28125,0 -0.28125,-1.125 -27.28125,0 z m 1.3125,4.96875 0.3125,1.125 27.3125,0 -0.3125,-1.125 -27.3125,0 z m 1.3125,4.9375 0.3125,1.125 27.34375,0 -0.3125,-1.125 -27.34375,0 z m 1.34375,4.96875 0.28125,1.125 27.40625,0 -0.3125,-1.125 -27.375,0 z m 1.3125,4.96875 0.28125,1.125 27.46875,0 -0.3125,-1.125 -27.4375,0 z m 1.3125,4.9375 0.3125,1.125 27.46875,0 -0.3125,-1.125 -27.46875,0 z m 1.3125,4.96875 0.3125,1.125 27.3125,0 0,-0.71875 -0.0937,-0.40625 -27.53125,0 z m 1.34375,4.96875 0.28125,1.125 26,0 0,-1.125 -26.28125,0 z m 1.3125,4.9375 0.28125,1.125 24.6875,0 0,-1.125 -24.96875,0 z"
         style="fill:url(#linearGradient9127-999);fill-opacity:1;stroke:none"
         inkscape:connector-curvature="0" />
      <path
         inkscape:connector-curvature="0"
         id="path9033"
         d="m -764.70735,341.6716 c 0.53649,1.93192 1.07705,3.89911 1.57526,5.62152 l -2.03857,20.29307 c -0.0981,2.23413 -0.19231,2.10475 1.20461,3.42851 l 15.65994,0 51.55118,-10.19287 17.82207,-3.58294 c -1.60456,-7.06641 -0.37136,-11.82841 -5.4362,-13.03451 -55.22298,-2.30511 -58.40404,-2.52195 -80.33829,-2.53278 z"
         style="opacity:0.80973451;fill:url(#linearGradient9129-815);fill-opacity:1;stroke:#181818;stroke-width:0.77904779;stroke-linecap:round;stroke-linejoin:round;stroke-miterlimit:4;stroke-opacity:1;stroke-dashoffset:0" />
      <rect
         style="fill:#181818;fill-opacity:1;stroke:none"
         id="rect9035"
         width="17.9"
         height="6.2862592"
         x="-905.67236"
         y="163.6002" />
      <path
         style="fill:#181818;fill-opacity:1;stroke:none"
         d="m -873.42237,167.35021 c 22.69627,-3.21986 23.60261,-1.78616 34.43725,-2.0625 l -0.0625,4.79694 -34.37475,0 z"
         id="path9037"
         inkscape:connector-curvature="0"
         sodipodi:nodetypes="ccccc" />
      <path
         inkscape:connector-curvature="0"
         style="fill:url(#linearGradient9131-647);fill-opacity:1;stroke:none"
         d="m -812.90721,128.17644 -0.0946,0.18938 -57.87322,0.34718 0,3.97685 c 0,2.45138 1.96587,4.41873 4.4154,4.41873 l 49.13704,0 c 2.44953,0 4.4154,-1.96735 4.4154,-4.41873 l 0,-4.51341 z"
         id="path9039" />
      <path
         style="fill:#181818;stroke:none;filter:url(#filter5933)"
         d="m -713.83012,127.30126 13.30625,-0.0312 2.625,4.09876 -18.8375,-0.0312 z"
         id="path9041"
         inkscape:connector-curvature="0"
         sodipodi:nodetypes="ccccc" />
      <path
         id="path9043"
         d="m -697.11397,115.84315 -16.03125,5 -6.46875,0.6875 -3.59375,4.15625 -35.53125,0.0625 c 0.24822,0.13011 0.54401,0.21875 0.84375,0.21875 l 76.34375,0 -0.5,-0.4375 -4.03125,-9.5625 -11.03125,-0.125 z"
         style="opacity:0.69911505;fill:#555555;fill-opacity:1;stroke:none"
         inkscape:connector-curvature="0" />
      <path
         inkscape:connector-curvature="0"
         style="fill:#7e7e7e;fill-opacity:1;stroke:none"
         d="m -697.10987,115.83178 -13.53125,4.21875 26.28125,0 -1.71875,-4.09375 -11.03125,-0.125 z"
         id="path9045" />
      <path
         transform="matrix(0.99998615,-0.00526327,0.00526327,0.99998615,-409.41931,-8.485465)"
         sodipodi:nodetypes="ccccc"
         inkscape:connector-curvature="0"
         id="path9047"
         d="m -543.10409,132.13419 10.88541,-0.0256 2.14743,3.35162 -15.41037,-0.0256 z"
         style="fill:#181818;stroke:none;filter:url(#filter5917)" />
      <path
         transform="matrix(0.9261242,0,0,1,-447.66259,-5.6568542)"
         style="fill:url(#linearGradient9133-975);fill-opacity:1;stroke:none;filter:url(#filter5969)"
         d="m -555.15215,178.13813 -0.375,30.71591 2.21875,2.54084 c 3.29151,-0.1416 6.48475,-0.3247 9.625,-0.5364 l 0.625,-1.86328 1.03125,1.72212 c 33.2851,-2.39271 57.0625,-8.58616 57.0625,-15.89435 0,-8.24028 -30.16922,-15.1411 -70.1875,-16.68484 z"
         id="path9049"
         inkscape:connector-curvature="0" />
      <path
         sodipodi:nodetypes="ccccc"
         inkscape:connector-curvature="0"
         id="path9051"
         d="m -904.82746,191.32071 c -39.00424,-4.90089 -40.56183,-2.71867 -59.18148,-3.13929 l 0.10741,7.30133 59.07407,0 z"
         style="fill:#181818;stroke:none" />
      <path
         id="path9053"
         d="m -783.36397,138.9369 8.59375,30.25 6.90625,0 -8.59375,-30.25 -6.90625,0 z m 10,0 8.59375,30.25 6.90625,0 -8.59375,-30.25 -6.90625,0 z m 10,0 8.59375,30.25 6.90625,0 -8.59375,-30.25 -6.90625,0 z m 10,0 8.59375,30.25 6.90625,0 -8.59375,-30.25 -6.90625,0 z m 10,0 8.59375,30.25 6.90625,0 -8.59375,-30.25 -6.90625,0 z m 10,0 8.59375,30.25 6.90625,0 -8.59375,-30.25 -6.90625,0 z m 10,0 8.59375,30.25 6.90625,0 -8.59375,-30.25 -6.90625,0 z m 10,0 8.59375,30.25 6.90625,0 -8.59375,-30.25 -6.90625,0 z m 10,0 8.59375,30.25 6.90625,0 -8.59375,-30.25 -6.90625,0 z"
         style="fill:#181818;fill-opacity:1;stroke:none"
         inkscape:connector-curvature="0" />
      <path
         inkscape:connector-curvature="0"
         style="fill:#181818;stroke:none"
         d="m -963.85987,170.48803 -0.0312,1.875 296.21875,0 -0.6875,-1.875 -295.5,0 z"
         id="path9055" />
      <path
         transform="matrix(0.9929889,0,0,0.9929889,-976.99414,-41.193406)"
         d="m 303.21429,380.39789 c 0,1.08484 -0.87944,1.96428 -1.96429,1.96428 -1.08485,0 -1.96429,-0.87944 -1.96429,-1.96428 0,-1.08485 0.87944,-1.96429 1.96429,-1.96429 1.08485,0 1.96429,0.87944 1.96429,1.96429 z"
         sodipodi:ry="1.9642857"
         sodipodi:rx="1.9642857"
         sodipodi:cy="380.39789"
         sodipodi:cx="301.25"
         id="path9057"
         style="fill:#181818;fill-opacity:1;stroke:none"
         sodipodi:type="arc" />
      <g
         id="g9059"
         style="font-size:19.68535233px;font-style:normal;font-variant:normal;font-weight:bold;font-stretch:normal;text-align:start;line-height:125%;letter-spacing:0px;word-spacing:0px;writing-mode:lr-tb;text-anchor:start;opacity:0.92035403;fill:#323232;fill-opacity:1;stroke:#444444;stroke-width:0.48100001;stroke-miterlimit:4;stroke-opacity:1;font-family:Sakkal Majalla;-inkscape-font-specification:Sakkal Majalla Bold"
         transform="matrix(1.23529,0,0,0.9873257,-353.05761,-22.647882)">
        <path
           inkscape:connector-curvature="0"
           id="path9061"
           style="stroke:#444444"
           d="m -470.01487,177.80791 -2.19153,-0.11534 0.10573,-0.7978 4.13316,0 0,4.01781 c -0.22429,0.0961 -0.49984,0.19224 -0.82664,0.28836 -0.32681,0.0961 -0.68245,0.18423 -1.06693,0.26433 -0.38448,0.0801 -0.78018,0.14578 -1.18708,0.19705 -0.40691,0.0513 -0.8026,0.0769 -1.18708,0.0769 -0.76896,0 -1.42257,-0.12335 -1.96084,-0.37006 -0.53828,-0.24671 -0.97562,-0.59594 -1.31204,-1.04771 -0.33642,-0.45176 -0.58153,-0.99163 -0.73532,-1.61962 -0.15379,-0.62798 -0.23068,-1.32645 -0.23068,-2.09541 0,-0.76895 0.13136,-1.45941 0.39409,-2.07138 0.26272,-0.61196 0.63278,-1.13261 1.11018,-1.56195 0.47739,-0.42933 1.04931,-0.75774 1.71574,-0.98523 0.66643,-0.22747 1.40014,-0.34122 2.20115,-0.34123 0.19864,1e-5 0.42132,0.006 0.66803,0.0192 0.2467,0.0128 0.4902,0.032 0.73051,0.0577 0.24029,0.0256 0.46778,0.0529 0.68245,0.0817 0.21466,0.0289 0.39248,0.0625 0.53347,0.10093 l -0.34603,1.43218 c -0.16662,-0.0513 -0.37648,-0.10412 -0.62959,-0.15859 -0.25312,-0.0545 -0.51905,-0.10252 -0.79779,-0.14418 -0.27876,-0.0417 -0.55751,-0.0769 -0.83625,-0.10573 -0.27875,-0.0288 -0.52706,-0.0433 -0.74493,-0.0433 -0.35885,1e-5 -0.69687,0.0272 -1.01406,0.0817 -0.3172,0.0545 -0.61037,0.18104 -0.8795,0.37968 -0.14738,0.10894 -0.26593,0.27875 -0.35564,0.50943 -0.0897,0.2307 -0.1602,0.49503 -0.21146,0.79299 -0.0513,0.29798 -0.0865,0.61838 -0.10574,0.9612 -0.0192,0.34283 -0.0288,0.67765 -0.0288,1.00445 -1e-5,1.31364 0.17141,2.3197 0.51424,3.01817 0.34282,0.69847 0.8859,1.0477 1.62923,1.0477 0.18583,0 0.38287,-0.006 0.59114,-0.0192 0.20825,-0.0128 0.41331,-0.032 0.61517,-0.0577 0.20184,-0.0256 0.39088,-0.0513 0.5671,-0.0769 0.17622,-0.0256 0.32841,-0.0545 0.45657,-0.0865 z" />
        <path
           inkscape:connector-curvature="0"
           id="path9063"
           style="stroke:#444444"
           d="m -457.42316,178.13472 c -1e-5,0.49342 -0.0961,0.95799 -0.28836,1.39374 -0.19225,0.43574 -0.4758,0.81702 -0.85066,1.14382 -0.37488,0.32681 -0.84106,0.58633 -1.39855,0.77857 -0.5575,0.19224 -1.20471,0.28836 -1.94162,0.28836 -0.60876,0 -1.15825,-0.0609 -1.64846,-0.18263 -0.49021,-0.12175 -0.90833,-0.31879 -1.25436,-0.59113 -0.34603,-0.27234 -0.61357,-0.62959 -0.8026,-1.07174 -0.18904,-0.44215 -0.28356,-0.98362 -0.28355,-1.62443 l 0,-6.50731 2.0089,0 0,6.69955 c 0,0.49342 0.0465,0.88591 0.13937,1.17747 0.0929,0.29157 0.22749,0.51425 0.40371,0.66804 0.17621,0.15379 0.39569,0.25311 0.65842,0.29797 0.26272,0.0448 0.5671,0.0673 0.91314,0.0673 0.42292,0 0.78818,-0.0417 1.09577,-0.12495 0.30757,-0.0833 0.56389,-0.19545 0.76895,-0.33642 0.20505,-0.14739 0.33481,-0.37327 0.38929,-0.67765 0.0545,-0.30438 0.0817,-0.67444 0.0817,-1.11018 l 0,-6.66111 2.00891,0 0,6.37275 z" />
        <path
           inkscape:connector-curvature="0"
           id="path9065"
           style="stroke:#444444"
           d="m -447.08066,181.6527 -6.94947,-6.9014 -0.0288,0 c 0.0128,0.57672 0.0256,1.10859 0.0385,1.59559 0.006,0.20506 0.0112,0.41172 0.0144,0.61997 0.003,0.20826 0.006,0.4005 0.01,0.57672 0.003,0.17622 0.006,0.33001 0.01,0.46138 0.003,0.13136 0.005,0.22588 0.005,0.28355 l 0,3.31613 -1.17266,0 0,-9.90996 0.87469,0 6.95908,6.88219 0.01,0 c -0.0128,-0.53186 -0.0224,-1.02848 -0.0288,-1.48986 -10e-6,-0.19864 -0.002,-0.39889 -0.005,-0.60075 -0.003,-0.20185 -0.006,-0.39409 -0.01,-0.57672 -0.003,-0.18262 -0.005,-0.35083 -0.005,-0.50463 -10e-6,-0.15378 -10e-6,-0.27874 0,-0.37487 l 0,-3.26807 1.17266,0 0,9.89073 z" />
        <path
           inkscape:connector-curvature="0"
           id="path9067"
           style="stroke:#444444"
           d="m -440.1312,179.19204 1.32646,1.31684 -1.32646,1.31684 -1.31684,-1.31684 z" />
        <path
           inkscape:connector-curvature="0"
           id="path9069"
           style="stroke:#444444"
           d="m -437.94927,177.80791 4.31578,-6.094 1.93201,0 0,6.03633 1.25917,0 -0.24991,1.37451 -1.00926,0.0481 0,2.43183 -1.97046,0 0,-2.38377 c -0.11535,0 -0.26593,0 -0.45176,0 -0.18584,0 -0.38929,-0.002 -0.61036,-0.005 -0.22108,-0.003 -0.45497,-0.006 -0.70168,-0.01 -0.24671,-0.003 -0.48861,-0.005 -0.7257,-0.005 -0.5575,-0.006 -1.15344,-0.0128 -1.78783,-0.0192 z m 1.23033,-0.0577 3.047,0 0,-4.45997 z" />
        <path
           inkscape:connector-curvature="0"
           id="path9071"
           style="stroke:#444444"
           d="m -426.20342,181.71999 c -0.62799,0 -1.16146,-0.10894 -1.6004,-0.32681 -0.43895,-0.21787 -0.7978,-0.53827 -1.07654,-0.9612 -0.27875,-0.42292 -0.4822,-0.94678 -0.61036,-1.57156 -0.12816,-0.62477 -0.19224,-1.34727 -0.19224,-2.1675 0,-0.77536 0.0625,-1.47383 0.18743,-2.09541 0.12496,-0.62157 0.3252,-1.15023 0.60075,-1.58598 0.27554,-0.43574 0.63439,-0.77055 1.07654,-1.00446 0.44215,-0.23388 0.98042,-0.35082 1.61482,-0.35083 0.63438,1e-5 1.17105,0.11054 1.61,0.33161 0.43895,0.22109 0.79619,0.54629 1.07174,0.97562 0.27554,0.42934 0.47579,0.9548 0.60075,1.57636 0.12495,0.62158 0.18743,1.33287 0.18743,2.13386 0,0.78178 -0.0625,1.48346 -0.18743,2.10503 -0.12496,0.62158 -0.32521,1.15024 -0.60075,1.58598 -0.27555,0.43574 -0.63279,0.77056 -1.07174,1.00445 -0.43895,0.23389 -0.97562,0.35084 -1.61,0.35084 z m -1.43219,-5.03668 c 0,0.70488 0.024,1.31204 0.0721,1.82147 0.0481,0.50944 0.12816,0.93076 0.2403,1.26397 0.11214,0.33322 0.25792,0.57993 0.43734,0.74013 0.17943,0.1602 0.4037,0.2403 0.67284,0.2403 0.18583,0 0.37006,-0.0224 0.55269,-0.0673 0.18263,-0.0448 0.34443,-0.10893 0.48541,-0.19224 0.12815,-0.0769 0.22748,-0.42132 0.29797,-1.03328 0.0705,-0.61197 0.10573,-1.53311 0.10573,-2.76345 0,-1.37131 -0.10734,-2.39338 -0.322,-3.06623 -0.21467,-0.67283 -0.57833,-1.00925 -1.09096,-1.00925 -0.38448,0 -0.70168,0.0673 -0.95159,0.20185 -0.14738,0.0769 -0.26753,0.44216 -0.36045,1.09576 -0.0929,0.65363 -0.13937,1.57638 -0.13937,2.76826 z" />
        <path
           inkscape:connector-curvature="0"
           id="path9073"
           style="stroke:#444444"
           d="m -416.8798,181.60464 0,-4.4119 c 0,-0.39088 -0.0609,-0.67924 -0.18262,-0.86508 -0.12176,-0.18582 -0.32682,-0.27874 -0.61517,-0.27874 -0.10253,0 -0.21788,0.0144 -0.34603,0.0433 -0.12817,0.0288 -0.25633,0.0705 -0.38448,0.12496 -0.12817,0.0545 -0.25472,0.11534 -0.37968,0.18262 -0.12496,0.0673 -0.2387,0.13938 -0.34122,0.21627 l 0,4.98862 -1.97046,0 0,-6.5746 1.75899,0 0.17302,0.76896 0.0192,0 c 0.13457,-0.0833 0.29317,-0.17781 0.4758,-0.28355 0.18262,-0.10573 0.37967,-0.20505 0.59114,-0.29797 0.21145,-0.0929 0.43253,-0.17141 0.66322,-0.2355 0.23069,-0.0641 0.45817,-0.0961 0.68245,-0.0961 0.36525,1e-5 0.69366,0.0833 0.98523,0.24992 0.29156,0.16661 0.51103,0.41652 0.65842,0.74973 0.14097,-0.0897 0.31399,-0.19223 0.51905,-0.30758 0.20505,-0.11534 0.42292,-0.22428 0.65362,-0.32681 0.23068,-0.10252 0.46617,-0.18903 0.70648,-0.25952 0.24029,-0.0705 0.47258,-0.10573 0.69687,-0.10574 0.2499,1e-5 0.48699,0.0401 0.71128,0.12015 0.22427,0.0801 0.41811,0.20186 0.58153,0.36526 0.16339,0.16341 0.29315,0.36526 0.38928,0.60556 0.0961,0.2403 0.14417,0.52385 0.14418,0.85066 l 0,4.77715 -1.97045,0 0,-4.4119 c -1e-5,-0.39088 -0.0609,-0.67924 -0.18263,-0.86508 -0.12176,-0.18582 -0.32682,-0.27874 -0.61517,-0.27874 -0.10253,0 -0.21788,0.0144 -0.34603,0.0433 -0.12817,0.0288 -0.25633,0.0705 -0.38448,0.12496 -0.12817,0.0545 -0.25472,0.11534 -0.37967,0.18262 -0.12497,0.0673 -0.23871,0.13938 -0.34123,0.21627 l 0,4.98862 z" />
        <path
           inkscape:connector-curvature="0"
           id="path9075"
           style="stroke:#444444"
           d="m -404.30731,181.60464 0,-4.4119 c -1e-5,-0.39088 -0.0609,-0.67924 -0.18263,-0.86508 -0.12176,-0.18582 -0.32681,-0.27874 -0.61517,-0.27874 -0.10253,0 -0.21787,0.0144 -0.34603,0.0433 -0.12816,0.0288 -0.25632,0.0705 -0.38448,0.12496 -0.12816,0.0545 -0.25472,0.11534 -0.37967,0.18262 -0.12496,0.0673 -0.2387,0.13938 -0.34123,0.21627 l 0,4.98862 -1.97046,0 0,-6.5746 1.759,0 0.17301,0.76896 0.0192,0 c 0.13456,-0.0833 0.29316,-0.17781 0.47579,-0.28355 0.18263,-0.10573 0.37967,-0.20505 0.59114,-0.29797 0.21146,-0.0929 0.43253,-0.17141 0.66323,-0.2355 0.23068,-0.0641 0.45816,-0.0961 0.68245,-0.0961 0.36525,1e-5 0.69366,0.0833 0.98523,0.24992 0.29155,0.16661 0.51103,0.41652 0.65842,0.74973 0.14097,-0.0897 0.31398,-0.19223 0.51904,-0.30758 0.20505,-0.11534 0.42292,-0.22428 0.65362,-0.32681 0.23068,-0.10252 0.46617,-0.18903 0.70648,-0.25952 0.24029,-0.0705 0.47258,-0.10573 0.69687,-0.10574 0.2499,1e-5 0.487,0.0401 0.71129,0.12015 0.22427,0.0801 0.41811,0.20186 0.58152,0.36526 0.16339,0.16341 0.29316,0.36526 0.38929,0.60556 0.0961,0.2403 0.14417,0.52385 0.14418,0.85066 l 0,4.77715 -1.97046,0 0,-4.4119 c -1e-5,-0.39088 -0.0609,-0.67924 -0.18263,-0.86508 -0.12176,-0.18582 -0.32681,-0.27874 -0.61517,-0.27874 -0.10253,0 -0.21788,0.0144 -0.34603,0.0433 -0.12816,0.0288 -0.25632,0.0705 -0.38448,0.12496 -0.12816,0.0545 -0.25472,0.11534 -0.37967,0.18262 -0.12496,0.0673 -0.23871,0.13938 -0.34123,0.21627 l 0,4.98862 z" />
      </g>
      <g
         transform="matrix(0.71043463,0,0,0.71043463,-504.91658,42.661913)"
         id="g9077">
        <path
           sodipodi:type="arc"
           style="fill:#5d0000;fill-opacity:1;stroke:none"
           id="path9079"
           sodipodi:cx="301.25"
           sodipodi:cy="380.39789"
           sodipodi:rx="1.9642857"
           sodipodi:ry="1.9642857"
           d="m 303.21429,380.39789 c 0,1.08484 -0.87944,1.96428 -1.96429,1.96428 -1.08485,0 -1.96429,-0.87944 -1.96429,-1.96428 0,-1.08485 0.87944,-1.96429 1.96429,-1.96429 1.08485,0 1.96429,0.87944 1.96429,1.96429 z"
           transform="matrix(1.0988255,0,0,1.0988255,-665.43224,-248.96597)" />
        <path
           transform="matrix(0.9238255,0,0,0.9238255,-612.93224,-182.24009)"
           d="m 303.21429,380.39789 c 0,1.08484 -0.87944,1.96428 -1.96429,1.96428 -1.08485,0 -1.96429,-0.87944 -1.96429,-1.96428 0,-1.08485 0.87944,-1.96429 1.96429,-1.96429 1.08485,0 1.96429,0.87944 1.96429,1.96429 z"
           sodipodi:ry="1.9642857"
           sodipodi:rx="1.9642857"
           sodipodi:cy="380.39789"
           sodipodi:cx="301.25"
           id="path9081"
           style="fill:#dc0000;fill-opacity:1;stroke:none"
           sodipodi:type="arc" />
      </g>
      <path
         sodipodi:nodetypes="sccssccssss"
         inkscape:connector-curvature="0"
         id="path9083"
         d="m -761.82235,233.59347 35.27498,-0.43522 c 1.32352,0.51978 2.49032,1.43381 3.25122,3.51656 3.99368,18.03385 21.03822,45.0005 22.46517,62.08328 0.0845,1.01099 -0.11969,2.2382 -0.82686,1.55448 -3.82889,-3.7019 -32.5035,-5.91996 -25.2408,26.09768 0.67334,2.43186 -0.16464,3.35156 -1.44586,3.8278 l -7.53393,-0.13576 c -0.98324,-0.0177 -1.8418,-0.82178 -2.10813,-1.80068 l -25.27779,-92.90746 c -0.2663,-0.9789 0.45869,-1.78855 1.442,-1.80068 z"
         style="opacity:0.31858407;fill:url(#pattern6250-278-844);fill-opacity:1;stroke:none" />
      <rect
         transform="matrix(0.9716012,-0.23662441,0.15179971,0.98841128,-408.70772,-5.6568542)"
         rx="1.068858"
         ry="1.3414617"
         y="149.13023"
         x="-407.07321"
         height="12.530685"
         width="6.8857083"
         id="rect9085"
         style="fill:#3b3b3b;fill-opacity:1;stroke:none;filter:url(#filter5796)" />
      <g
         id="g9087"
         transform="translate(-408.70772,-5.6568542)">
        <path
           transform="matrix(1.7988255,0,0,1.7988255,-935.30724,-484.99449)"
           d="m 303.21429,380.39789 c 0,1.08484 -0.87944,1.96428 -1.96429,1.96428 -1.08485,0 -1.96429,-0.87944 -1.96429,-1.96428 0,-1.08485 0.87944,-1.96429 1.96429,-1.96429 1.08485,0 1.96429,0.87944 1.96429,1.96429 z"
           sodipodi:ry="1.9642857"
           sodipodi:rx="1.9642857"
           sodipodi:cy="380.39789"
           sodipodi:cx="301.25"
           id="path9089"
           style="fill:#181818;fill-opacity:1;stroke:none"
           sodipodi:type="arc" />
        <path
           sodipodi:type="arc"
           style="fill:#323232;fill-opacity:1;stroke:none"
           id="path9091"
           sodipodi:cx="301.25"
           sodipodi:cy="380.39789"
           sodipodi:rx="1.9642857"
           sodipodi:ry="1.9642857"
           d="m 303.21429,380.39789 c 0,1.08484 -0.87944,1.96428 -1.96429,1.96428 -1.08485,0 -1.96429,-0.87944 -1.96429,-1.96428 0,-1.08485 0.87944,-1.96429 1.96429,-1.96429 1.08485,0 1.96429,0.87944 1.96429,1.96429 z"
           transform="matrix(1.4170074,0,0,1.4170074,-820.28452,-339.75166)" />
      </g>
      <g
         transform="matrix(0.82311691,0,0,0.82311691,-530.10798,29.216512)"
         id="g9093">
        <path
           sodipodi:type="arc"
           style="fill:#181818;fill-opacity:1;stroke:none"
           id="path9095"
           sodipodi:cx="301.25"
           sodipodi:cy="380.39789"
           sodipodi:rx="1.9642857"
           sodipodi:ry="1.9642857"
           d="m 303.21429,380.39789 c 0,1.08484 -0.87944,1.96428 -1.96429,1.96428 -1.08485,0 -1.96429,-0.87944 -1.96429,-1.96428 0,-1.08485 0.87944,-1.96429 1.96429,-1.96429 1.08485,0 1.96429,0.87944 1.96429,1.96429 z"
           transform="matrix(1.7988255,0,0,1.7988255,-935.30724,-484.99449)" />
        <path
           transform="matrix(1.4170074,0,0,1.4170074,-820.28452,-339.75166)"
           d="m 303.21429,380.39789 c 0,1.08484 -0.87944,1.96428 -1.96429,1.96428 -1.08485,0 -1.96429,-0.87944 -1.96429,-1.96428 0,-1.08485 0.87944,-1.96429 1.96429,-1.96429 1.08485,0 1.96429,0.87944 1.96429,1.96429 z"
           sodipodi:ry="1.9642857"
           sodipodi:rx="1.9642857"
           sodipodi:cy="380.39789"
           sodipodi:cx="301.25"
           id="path9097"
           style="fill:#323232;fill-opacity:1;stroke:none"
           sodipodi:type="arc" />
      </g>
      <path
         sodipodi:nodetypes="ccccccc"
         inkscape:connector-curvature="0"
         id="path9099"
         d="m -958.33447,119.43029 -1.217,6.28786 26.46875,0 -3.73436,-5.358 c -0.49558,-0.97379 -0.93038,-0.83953 -1.95239,-0.86865 l -18.84448,-0.5368 c -0.83846,-0.17955 -0.63391,0.33844 -0.72052,0.47559 z"
         style="fill:#4b4b4b;fill-opacity:1;stroke:none" />
      <path
         transform="matrix(1.1459193,0,0,0.94040008,-330.39176,1.8916655)"
         inkscape:connector-curvature="0"
         style="opacity:0.69911505;fill:#656565;fill-opacity:1;stroke:none;filter:url(#filter5909)"
         d="m -547.04497,125.30086 -1.03878,5.36703 20.94875,0 -3.41314,-4.89711 -16.49683,-0.46992 z"
         id="path9101" />
      <path
         transform="matrix(1,0,0,0.71063346,-408.70772,47.979894)"
         sodipodi:nodetypes="sscsscss"
         inkscape:connector-curvature="0"
         id="path9103"
         d="m -406.76969,182.60922 c -1.20625,0 -3.83163,-0.22267 -6.29386,0.47821 -2.07973,0.592 -3.85867,2.02729 -6.44573,2.93418 0.23136,1.20015 1.26117,2.10431 2.53085,2.10431 l 19.99092,0 c 1.3269,0 2.39603,-0.9938 2.55929,-2.27493 -2.19324,-0.76334 -4.0995,-1.91769 -5.92933,-2.44883 -2.74046,-0.79546 -5.10957,-0.79294 -6.41214,-0.79294 z"
         style="fill:#212121;fill-opacity:1;stroke:none;filter:url(#filter6028)" />
      <path
         transform="matrix(1,0,0,0.72323184,-408.70772,44.877931)"
         sodipodi:nodetypes="scssscss"
         inkscape:connector-curvature="0"
         id="path9105"
         d="m -416.97843,177.40533 c -0.88602,0 -1.66377,0.43602 -2.13274,1.10903 2.40177,0.83606 4.65084,3.01502 6.60277,3.57277 2.50308,0.71523 4.35665,0.50174 5.57784,0.50174 1.0024,0 3.54078,0.34102 5.48206,-0.34191 2.17969,-0.76678 3.85826,-2.61477 6.67904,-3.59042 -0.45431,-0.7535 -1.27048,-1.25121 -2.21805,-1.25121 z"
         style="fill:#3b3b3b;fill-opacity:1;stroke:none;filter:url(#filter6032)" />
      <path
         transform="matrix(0.90914383,0,0,0.90914383,-438.62404,10.658617)"
         inkscape:connector-curvature="0"
         id="path9107"
         d="m -330.34375,185.15625 c -2.1025,0.0318 -4.49085,0.15017 -6.8125,0.5 -3.6038,0.54302 -5.6052,1.78338 -9.6875,2.6875 0.1652,0.87733 0.71665,1.65352 1.5,2.1875 0.007,0.005 0.0241,-0.005 0.0312,0 0.23417,0.0494 0.46831,0.0809 0.75,0.125 1.59157,0.24905 3.14655,0.47444 4.6875,0.65625 l 25.09375,0 c 2.27466,0 4.0819,-2.92514 5.03125,-4.65625 -1.16932,-0.26216 -2.31732,-0.51538 -3.4375,-0.6875 -5.16799,-0.79406 -9.63735,-0.8125 -12.09375,-0.8125 -1.13738,0 -2.96,-0.0318 -5.0625,0 z"
         style="fill:#212121;fill-opacity:1;stroke:none;filter:url(#filter6028)" />
      <path
         transform="matrix(0.90914383,0,0,0.90914383,-438.62404,10.658617)"
         inkscape:connector-curvature="0"
         id="path9109"
         d="m -344.8125,178.84375 c -0.64274,0 -1.25003,0.0889 -1.8125,0.21875 -0.1735,0.38736 -0.28125,0.81043 -0.28125,1.25 l 0,0.3125 c 3.85445,1.13235 7.46032,3.02033 10.65625,3.5625 4.79868,0.81405 8.34635,0.5625 10.6875,0.5625 1.92171,0 6.77836,0.37104 10.5,-0.40625 2.78281,-0.58119 5.1701,-1.70273 8.03125,-2.71875 l 0.71875,-1.3125 c 0.26816,-0.49282 0.21784,-1.00557 -0.0312,-1.46875 -0.0511,-9e-4 -0.10475,0 -0.15625,0 l -38.3125,0 z"
         style="fill:#3b3b3b;fill-opacity:1;stroke:none;filter:url(#filter6032)" />
      <path
         inkscape:connector-curvature="0"
         id="path9111"
         d="m -709.17647,254.28065 c 0.16061,0.37376 0.30777,0.75186 0.46875,1.125 l 20.6875,0 c -0.18342,-0.37429 -0.38146,-0.759 -0.5625,-1.125 l -20.59375,0 z m 2.125,4.9375 c 0.16162,0.37205 0.30712,0.75298 0.46875,1.125 l 20.90625,0 c -0.16984,-0.37325 -0.33129,-0.76156 -0.5,-1.125 l -20.875,0 z m 2.125,4.96875 c 0.16054,0.37179 0.30856,0.75264 0.46875,1.125 l 20.9375,0 c -0.16001,-0.39051 -0.30915,-0.74536 -0.46875,-1.125 l -20.9375,0 z m 2.125,4.96875 c 0.15996,0.37912 0.34076,0.74469 0.5,1.125 l 20.6875,0 c -0.13483,-0.36895 -0.27135,-0.76527 -0.40625,-1.125 l -20.78125,0 z m 2.0625,4.9375 c 0.15252,0.37609 0.31727,0.74722 0.46875,1.125 l 20.34375,0 c -0.1205,-0.37062 -0.22295,-0.76297 -0.34375,-1.125 l -20.46875,0 z m 1.96875,4.96875 c 0.14274,0.37222 0.29605,0.75067 0.4375,1.125 l 19.9375,0 c -0.10769,-0.37205 -0.20436,-0.76087 -0.3125,-1.125 l -20.0625,0 z m 1.8125,4.96875 c 0.13317,0.37276 0.2746,0.74976 0.40625,1.125 l 19.46875,0 c -0.0871,-0.3733 -0.16105,-0.75251 -0.25,-1.125 l -19.625,0 z m 1.71875,4.9375 c 0.12273,0.37417 0.25397,0.74804 0.375,1.125 l 18.875,0 c -0.0796,-0.37583 -0.1688,-0.74987 -0.25,-1.125 l -19,0 z m 1.53125,4.96875 c 0.11068,0.37298 0.2349,0.74902 0.34375,1.125 l 18.375,0 c -0.0727,-0.37569 -0.14468,-0.7499 -0.21875,-1.125 l -18.5,0 z m 1.40625,4.96875 c 0.0983,0.37134 0.18491,0.75054 0.28125,1.125 l 17.96875,0 c -0.0666,-0.37262 -0.11984,-0.75285 -0.1875,-1.125 l -18.0625,0 z m 1.21875,4.9375 c 0.0866,0.37264 0.16535,0.74912 0.25,1.125 l 17.625,0 c -0.0623,-0.3728 -0.0931,-0.75256 -0.15625,-1.125 l -17.71875,0 z m 1.0625,4.96875 c 0.0742,0.36986 0.14654,0.75191 0.21875,1.125 l 17.40625,0 c -0.0594,-0.37576 -0.12744,-0.7495 -0.1875,-1.125 l -17.4375,0 z m 0.9375,4.96875 c 0.0627,0.36967 0.12674,0.75209 0.1875,1.125 l 17.28125,0 c -0.0573,-0.37635 -0.12982,-0.74882 -0.1875,-1.125 l -17.28125,0 z m 0.78125,4.9375 c 0.0519,0.3701 0.10637,0.75167 0.15625,1.125 l 17.28125,0 c -0.0561,-0.37649 -0.13122,-0.74858 -0.1875,-1.125 l -17.25,0 z m 0.625,4.96875 c 0.0421,0.37693 0.0849,0.74477 0.125,1.125 l 17.40625,0 c -0.0557,-0.37497 -0.10058,-0.75 -0.15625,-1.125 l -17.375,0 z m 0.46875,4.96875 c 0.0319,0.37505 0.0638,0.74674 0.0937,1.125 l 17.46875,0 c -0.0366,-0.38024 -0.0572,-0.74883 -0.0937,-1.125 l -17.46875,0 z"
         style="fill:url(#linearGradient10822);fill-opacity:1;stroke:none" />
    </g>
  </g>
</svg>
